<?xml version="1.0" encoding="iso-8859-1"?>
<!-- Generator: Adobe Illustrator 16.0.0, SVG Export Plug-In . SVG Version: 6.00 Build 0)  -->
<!DOCTYPE svg PUBLIC "-//W3C//DTD SVG 1.1//EN" "http://www.w3.org/Graphics/SVG/1.1/DTD/svg11.dtd">
<svg version="1.1" id="Capa_1" xmlns="http://www.w3.org/2000/svg" xmlns:xlink="http://www.w3.org/1999/xlink" x="0px" y="0px"
	 width="106.048px" height="106.048px" viewBox="0 0 106.048 106.048" style="enable-background:new 0 0 106.048 106.048;"
	 xml:space="preserve">
<g>
	<path style="fill:#010002;" d="M84.838,0H21.209C9.543,0,0,9.543,0,21.209v63.629c0,11.666,9.543,21.21,21.209,21.21h63.628
		c11.667,0,21.21-9.544,21.21-21.21V21.209C106.048,9.543,96.505,0,84.838,0z M92.792,92.792H13.256V53.019
		c0-21.963,17.805-39.763,39.768-39.763c21.966,0,39.769,17.8,39.769,39.763V92.792z M53.023,15.907
		c-20.461,0-37.116,16.65-37.116,37.111v37.122h74.233V53.019C90.141,32.557,73.488,15.907,53.023,15.907z M84.838,84.838
		l-23.86-23.86v-7.954c0-4.391-3.562-7.953-7.954-7.953c-4.391,0-7.953,3.562-7.953,7.953v7.954l-23.861,23.86V53.019
		c0-17.562,14.253-31.81,31.814-31.81c17.564,0,31.814,14.248,31.814,31.81V84.838z"/>
</g>
<g>
</g>
<g>
</g>
<g>
</g>
<g>
</g>
<g>
</g>
<g>
</g>
<g>
</g>
<g>
</g>
<g>
</g>
<g>
</g>
<g>
</g>
<g>
</g>
<g>
</g>
<g>
</g>
<g>
</g>
</svg>
