<?xml version="1.0" encoding="UTF-8" standalone="no"?>
<!-- Generator: Adobe Illustrator 16.0.0, SVG Export Plug-In . SVG Version: 6.00 Build 0)  -->

<svg
   xmlns:dc="http://purl.org/dc/elements/1.1/"
   xmlns:cc="http://creativecommons.org/ns#"
   xmlns:rdf="http://www.w3.org/1999/02/22-rdf-syntax-ns#"
   xmlns:svg="http://www.w3.org/2000/svg"
   xmlns="http://www.w3.org/2000/svg"
   xmlns:sodipodi="http://sodipodi.sourceforge.net/DTD/sodipodi-0.dtd"
   xmlns:inkscape="http://www.inkscape.org/namespaces/inkscape"
   version="1.1"
   id="Capa_1"
   x="0px"
   y="0px"
   width="24px"
   height="24px"
   viewBox="0 0 106.048 106.048"
   style="enable-background:new 0 0 106.048 106.048;"
   xml:space="preserve"
   inkscape:version="0.91 r13725"
   sodipodi:docname="active.svg"><metadata
     id="metadata3454"><rdf:RDF><cc:Work
         rdf:about=""><dc:format>image/svg+xml</dc:format><dc:type
           rdf:resource="http://purl.org/dc/dcmitype/StillImage" /><dc:title /></cc:Work></rdf:RDF></metadata><defs
     id="defs3452"><clipPath
       clipPathUnits="userSpaceOnUse"
       id="clipPath3458"><rect
         style="fill:#0000ff;fill-rule:evenodd;stroke:#000000;stroke-width:1px;stroke-linecap:butt;stroke-linejoin:miter;stroke-opacity:1"
         id="rect3460"
         width="91.150314"
         height="88.405998"
         x="7.0567985"
         y="8.2329311" /></clipPath></defs><sodipodi:namedview
     pagecolor="#ff0eff"
     bordercolor="#ffffff"
     borderopacity="0"
     objecttolerance="10"
     gridtolerance="10"
     guidetolerance="10"
     inkscape:pageopacity="0"
     inkscape:pageshadow="2"
     inkscape:window-width="1366"
     inkscape:window-height="719"
     id="namedview3450"
     showgrid="false"
     inkscape:zoom="14.429118"
     inkscape:cx="23.537371"
     inkscape:cy="4.7532602"
     inkscape:window-x="0"
     inkscape:window-y="25"
     inkscape:window-maximized="1"
     inkscape:current-layer="Capa_1" /><g
     id="g3416"
     clip-path="url(#clipPath3458)"
     style="fill:none"><path
       style="fill:none"
       d="M84.838,0H21.209C9.543,0,0,9.543,0,21.209v63.629c0,11.666,9.543,21.21,21.209,21.21h63.628   c11.667,0,21.21-9.544,21.21-21.21V21.209C106.048,9.543,96.505,0,84.838,0z M92.792,92.792H13.256V53.019   c0-21.963,17.805-39.763,39.768-39.763c21.966,0,39.769,17.8,39.769,39.763V92.792z M53.023,15.907   c-20.461,0-37.116,16.65-37.116,37.111v37.122h74.233V53.019C90.141,32.557,73.488,15.907,53.023,15.907z M84.838,84.838   l-23.86-23.86v-7.954c0-4.391-3.562-7.953-7.954-7.953c-4.391,0-7.953,3.562-7.953,7.953v7.954l-23.861,23.86V53.019   c0-17.562,14.253-31.81,31.814-31.81c17.564,0,31.814,14.248,31.814,31.81V84.838z"
       id="path3418" /></g><g
     id="g3420" /><g
     id="g3422" /><g
     id="g3424" /><g
     id="g3426" /><g
     id="g3428" /><g
     id="g3430" /><g
     id="g3432" /><g
     id="g3434" /><g
     id="g3436" /><g
     id="g3438" /><g
     id="g3440" /><g
     id="g3442" /><g
     id="g3444" /><g
     id="g3446" /><g
     id="g3448" /><path
     style="fill:#666666;fill-opacity:1"
     d="m 21.420205,66.490722 c 0.06368,-17.784504 0.07055,-18.059613 0.496553,-19.882277 1.277471,-5.465704 3.508869,-10.000795 6.919413,-14.063009 4.646979,-5.534901 11.38387,-9.417159 18.699206,-10.775762 2.944838,-0.546915 8.456311,-0.504546 11.414791,0.08775 7.202225,1.441907 13.683706,5.235328 18.261657,10.688011 3.43711,4.093856 5.687035,8.698335 6.928071,14.178325 0.431999,1.907565 0.437474,2.127721 0.494068,19.864972 L 84.69119,84.524762 72.925053,72.764045 61.158919,61.003326 l -0.0061,-3.725033 c -0.0095,-5.877313 -0.39481,-7.647368 -2.067463,-9.498794 -3.292059,-3.643915 -8.72499,-3.680651 -12.042638,-0.08143 -1.749079,1.897526 -2.137969,3.632303 -2.147633,9.580221 l -0.006,3.725033 -11.766724,11.760719 -11.766724,11.760717 0.06457,-18.03404 z"
     id="path4323"
     inkscape:connector-curvature="0" /><path
     style="fill:#333333;fill-opacity:1"
     d="m 13.329508,72.013388 c 0,-13.306987 0.07513,-21.407474 0.211338,-22.787578 0.714655,-7.240885 3.423039,-14.219529 7.783928,-20.056703 1.3715,-1.835793 4.54212,-5.137332 6.510375,-6.779198 5.360632,-4.471696 12.28842,-7.536884 19.510891,-8.632559 2.886618,-0.437911 8.469298,-0.437911 11.355917,0 6.652009,1.009134 12.864976,3.588959 18.13635,7.530801 1.852843,1.385523 5.383302,4.779246 6.898869,6.631674 4.886486,5.972589 8.004158,13.546739 8.769973,21.305985 0.136214,1.380104 0.21134,9.480591 0.21134,22.787578 l 0,20.646294 -39.694491,0 -39.69449,0 0,-20.646294 z M 90.1702,70.357018 c 0,-12.735186 -0.07437,-20.55113 -0.205627,-21.611445 -0.555946,-4.490923 -1.778415,-8.483408 -3.8382,-12.535261 -1.783149,-3.507674 -3.473239,-5.897588 -6.143476,-8.687339 -3.451196,-3.60566 -6.370378,-5.761064 -10.689058,-7.892361 -12.434275,-6.136394 -27.339668,-4.739637 -38.515923,3.609256 -1.885813,1.408741 -5.195683,4.607576 -6.722203,6.496696 -4.318182,5.343898 -7.102484,11.982741 -7.97229,19.009009 -0.13126,1.060315 -0.205627,8.876259 -0.205627,21.611445 l 0,19.950398 37.146202,0 37.146202,0 0,-19.950398 z"
     id="path4325"
     inkscape:connector-curvature="0" /><path
     style="fill:#000000;fill-opacity:1"
     d="m 16.514367,16.43051 -2.616063,-2.616744 -0.05616,-1.17495 c -0.04673,-0.977735 -0.08012,-1.22148 -0.198954,-1.452167 -0.591084,-1.147482 -2.147848,-1.352396 -3.009836,-0.396178 -0.374981,0.415973 -0.471715,0.823193 -0.471715,1.985772 l 0,0.975349 -2.6335638,2.63288 -2.6335635,2.63288 0,-4.027748 0,-4.027747 0.173251,-0.682976 C 5.9375886,6.8499341 9.1930724,4.5590126 12.706301,4.9035555 c 2.474791,0.2427033 4.606419,1.7355696 5.705866,3.9960517 0.672358,1.3823798 0.645051,1.1469598 0.687305,5.9255178 0.02039,2.306101 0.0357,4.199485 0.03402,4.20752 -0.0017,0.008 -1.180287,-1.162926 -2.619123,-2.602135 z"
     id="path4153"
     inkscape:connector-curvature="0"
     transform="scale(4.4186665,4.4186665)" /><path
     style="fill:#000000;fill-opacity:1"
     d="M 3.0417226,15.985972 C 3.0823998,10.571838 3.0892294,10.474082 3.5158019,9.2001658 3.9831135,7.804587 4.6480006,6.7414776 5.7203126,5.6753025 6.7754413,4.6262123 7.7997919,3.9890821 9.1567284,3.5379051 10.200071,3.1909971 10.781814,3.0995959 11.963553,3.0969079 c 1.203011,-0.00274 1.897427,0.1007936 2.861225,0.4265781 1.357696,0.4589306 2.398563,1.107724 3.453346,2.1525413 1.318904,1.3064429 2.088149,2.7237943 2.501822,4.6096657 0.12701,0.579018 0.139457,0.982751 0.173609,5.630975 l 0.03679,5.007236 -8.99286,0 -8.9928598,0 0.037099,-4.937932 z M 20.418678,15.804464 c 0,-5.019129 -0.01502,-5.266234 -0.387551,-6.3759831 C 19.580484,8.0860351 18.914255,7.0084484 17.925951,6.0234786 16.319781,4.4227269 14.256824,3.5708653 11.998205,3.5757211 11.051911,3.5777555 10.320072,3.6884687 9.4685977,3.9584017 6.4684091,4.909517 4.2205795,7.4837924 3.679138,10.588648 c -0.082197,0.471351 -0.1014061,1.45938 -0.1014061,5.215816 l 0,4.63431 8.4204731,0 8.420473,0 0,-4.63431 z"
     id="path4155"
     inkscape:connector-curvature="0"
     transform="scale(4.4186665,4.4186665)" /></svg>