<?xml version="1.0" encoding="UTF-8" standalone="no"?>
<!-- Generator: Adobe Illustrator 16.0.0, SVG Export Plug-In . SVG Version: 6.00 Build 0)  -->

<svg
   xmlns:dc="http://purl.org/dc/elements/1.1/"
   xmlns:cc="http://creativecommons.org/ns#"
   xmlns:rdf="http://www.w3.org/1999/02/22-rdf-syntax-ns#"
   xmlns:svg="http://www.w3.org/2000/svg"
   xmlns="http://www.w3.org/2000/svg"
   xmlns:sodipodi="http://sodipodi.sourceforge.net/DTD/sodipodi-0.dtd"
   xmlns:inkscape="http://www.inkscape.org/namespaces/inkscape"
   version="1.1"
   id="Capa_1"
   x="0px"
   y="0px"
   width="24px"
   height="24px"
   viewBox="0 0 106.048 106.048"
   xml:space="preserve"
   inkscape:version="0.91 r13725"
   sodipodi:docname="inactive.svg"
   style="enable-background:new 0 0 106.048 106.048;"><metadata
     id="metadata3454"><rdf:RDF><cc:Work
         rdf:about=""><dc:format>image/svg+xml</dc:format><dc:type
           rdf:resource="http://purl.org/dc/dcmitype/StillImage" /><dc:title /></cc:Work></rdf:RDF></metadata><defs
     id="defs3452"><clipPath
       clipPathUnits="userSpaceOnUse"
       id="clipPath3458"><rect
         style="fill:#0000ff;fill-rule:evenodd;stroke:#000000;stroke-width:1px;stroke-linecap:butt;stroke-linejoin:miter;stroke-opacity:1"
         id="rect3460"
         width="91.150314"
         height="88.405998"
         x="7.0567985"
         y="8.2329311" /></clipPath></defs><sodipodi:namedview
     pagecolor="#ff0eff"
     bordercolor="#ffffff"
     borderopacity="0"
     objecttolerance="10"
     gridtolerance="10"
     guidetolerance="10"
     inkscape:pageopacity="0"
     inkscape:pageshadow="2"
     inkscape:window-width="1366"
     inkscape:window-height="719"
     id="namedview3450"
     showgrid="false"
     inkscape:zoom="5.1014637"
     inkscape:cx="-5.1945877"
     inkscape:cy="52.631954"
     inkscape:window-x="0"
     inkscape:window-y="25"
     inkscape:window-maximized="1"
     inkscape:current-layer="Capa_1" /><g
     id="g3416"
     clip-path="url(#clipPath3458)"
     style="fill:none"><path
       style="fill:none"
       d="M84.838,0H21.209C9.543,0,0,9.543,0,21.209v63.629c0,11.666,9.543,21.21,21.209,21.21h63.628   c11.667,0,21.21-9.544,21.21-21.21V21.209C106.048,9.543,96.505,0,84.838,0z M92.792,92.792H13.256V53.019   c0-21.963,17.805-39.763,39.768-39.763c21.966,0,39.769,17.8,39.769,39.763V92.792z M53.023,15.907   c-20.461,0-37.116,16.65-37.116,37.111v37.122h74.233V53.019C90.141,32.557,73.488,15.907,53.023,15.907z M84.838,84.838   l-23.86-23.86v-7.954c0-4.391-3.562-7.953-7.954-7.953c-4.391,0-7.953,3.562-7.953,7.953v7.954l-23.861,23.86V53.019   c0-17.562,14.253-31.81,31.814-31.81c17.564,0,31.814,14.248,31.814,31.81V84.838z"
       id="path3418" /></g><g
     id="g3420" /><g
     id="g3422" /><g
     id="g3424" /><g
     id="g3426" /><g
     id="g3428" /><g
     id="g3430" /><g
     id="g3432" /><g
     id="g3434" /><g
     id="g3436" /><g
     id="g3438" /><g
     id="g3440" /><g
     id="g3442" /><g
     id="g3444" /><g
     id="g3446" /><g
     id="g3448" /><path
     style="fill:#f2f2f2;fill-opacity:0.58823529"
     d="m 21.420205,66.490722 c 0.06368,-17.784504 0.07055,-18.059613 0.496553,-19.882277 1.277471,-5.465704 3.508869,-10.000795 6.919413,-14.063009 4.646979,-5.534901 11.38387,-9.417159 18.699206,-10.775762 2.944838,-0.546915 8.456311,-0.504546 11.414791,0.08775 7.202225,1.441907 13.683706,5.235328 18.261657,10.688011 3.43711,4.093856 5.687035,8.698335 6.928071,14.178325 0.431999,1.907565 0.437474,2.127721 0.494068,19.864972 L 84.69119,84.524762 72.925053,72.764045 61.158919,61.003326 l -0.0061,-3.725033 c -0.0095,-5.877313 -0.39481,-7.647368 -2.067463,-9.498794 -3.292059,-3.643915 -8.72499,-3.680651 -12.042638,-0.08143 -1.749079,1.897526 -2.137969,3.632303 -2.147633,9.580221 l -0.006,3.725033 -11.766724,11.760719 -11.766724,11.760717 0.06457,-18.03404 z"
     id="path4323"
     inkscape:connector-curvature="0" /><path
     style="fill:#f2f2f2;fill-opacity:0.58823529"
     d="m 13.329508,72.013388 c 0,-13.306987 0.07513,-21.407474 0.211338,-22.787578 0.714655,-7.240885 3.423039,-14.219529 7.783928,-20.056703 1.3715,-1.835793 4.54212,-5.137332 6.510375,-6.779198 5.360632,-4.471696 12.28842,-7.536884 19.510891,-8.632559 2.886618,-0.437911 8.469298,-0.437911 11.355917,0 6.652009,1.009134 12.864976,3.588959 18.13635,7.530801 1.852843,1.385523 5.383302,4.779246 6.898869,6.631674 4.886486,5.972589 8.004158,13.546739 8.769973,21.305985 0.136214,1.380104 0.21134,9.480591 0.21134,22.787578 l 0,20.646294 -39.694491,0 -39.69449,0 0,-20.646294 z M 90.1702,70.357018 c 0,-12.735186 -0.07437,-20.55113 -0.205627,-21.611445 -0.555946,-4.490923 -1.778415,-8.483408 -3.8382,-12.535261 -1.783149,-3.507674 -3.473239,-5.897588 -6.143476,-8.687339 -3.451196,-3.60566 -6.370378,-5.761064 -10.689058,-7.892361 -12.434275,-6.136394 -27.339668,-4.739637 -38.515923,3.609256 -1.885813,1.408741 -5.195683,4.607576 -6.722203,6.496696 -4.318182,5.343898 -7.102484,11.982741 -7.97229,19.009009 -0.13126,1.060315 -0.205627,8.876259 -0.205627,21.611445 l 0,19.950398 37.146202,0 37.146202,0 0,-19.950398 z"
     id="path4325"
     inkscape:connector-curvature="0" /></svg>
